# xmcd CD database file
#
# Track frame offsets:
#	150
#	14081
#	24235
#	39082
#	58073
#	75517
#	93666
#	111623
#	127962
#	138923
#	158737
#	176261
#	192753
#	211424
#	223993
#	244510
#	271046
#
# Disc length: 3854 seconds
#
# Revision: 0
# Processed by: cddbd v1.5.2PL0 Copyright (c) Steve Scherf et al.
# Submitted via: CDex 1.70beta2
#
DISCID=e30f0c11
DTITLE=ACID DRINKERS - STRIP TEASE
DYEAR=2005
DGENRE=Thrash Metal
TTITLE0=ACID DRINKERS - STRIP TEASE
TTITLE1=ACID DRINKERS - KING KONG BLESS YOU
TTITLE2=ACID DRINKERS - SEEK AND DESTROY
TTITLE3=ACID DRINKERS - ROCK'N'ROLL BEAST
TTITLE4=ACID DRINKERS - RATS/FEELING NASTY
TTITLE5=ACID DRINKERS - POPLIN TWIST
TTITLE6=ACID DRINKERS - MASTERHOOD OF HEARTS DEVOURING
TTITLE7=ACID DRINKERS - YOU ARE LOST MY DEAR
TTITLE8=ACID DRINKERS - MENEL SONG/ALWAYS LOOK ON THE BRIGHT SIDE OF LIFE
TTITLE9=ACID DRINKERS - BLOOD IS BOILING
TTITLE10=ACID DRINKERS - MY CADDISH PROMISE
TTITLE11=ACID DRINKERS - MENTALLY DEFICIENT
TTITLE12=ACID DRINKERS - HELL IT IS A PLACE ON EARTH
TTITLE13=ACID DRINKERS - RONNIE and THE BROTHER SPIDER
TTITLE14=ACID DRINKERS - I'M A ROCKER
TTITLE15=ACID DRINKERS - SEEK AND DESTROY
TTITLE16=MENEL SONG/ALWAYS LOOK ON THE BRIGHT SIDE OF LIFE 
EXTD=YEAR: 2005
EXTT0=
EXTT1=
EXTT2=
EXTT3=
EXTT4=
EXTT5=
EXTT6=
EXTT7=
EXTT8=
EXTT9=
EXTT10=
EXTT11=
EXTT12=
EXTT13=
EXTT14=
EXTT15=
EXTT16=
PLAYORDER=
